# xmcd CD database file
#
# Track frame offsets:
#	150
#	13019
#	29404
#	49143
#	65851
#	87002
#	104364
#	118259
#	139281
#	158347
#	173104
#
# Disc length: 2549 seconds
#
# Revision: 6
# Processed by: cddbd v1.5.2PL0 Copyright (c) Steve Scherf et al.
# Submitted via: CDex 1.70beta3
#
DISCID=9209f30b
DTITLE=アニメタル USA - アニメタル USA
DYEAR=2011
DGENRE=Heavy Metal
TTITLE0=宇宙戦艦ヤマト
TTITLE1=ガッチャマンの歌
TTITLE2=マジンガー・メドレー
TTITLE3=魔訶不思議アドベンチャー!
TTITLE4=残酷な天使のテーゼ
TTITLE5=愛をとりもどせ!!
TTITLE6=がんばれドカベン
TTITLE7=ペガサス幻想
TTITLE8=行けタイガーマスク
TTITLE9=キン肉マン GO FIGHT!
TTITLE10=ゆけゆけ飛雄馬
EXTD=YEAR: 2011
EXTT0=
EXTT1=
EXTT2=
EXTT3=
EXTT4=
EXTT5=
EXTT6=
EXTT7=
EXTT8=
EXTT9=
EXTT10=
PLAYORDER=
